<svg width="212" height="60" viewBox="0 0 212 60" fill="none" xmlns="http://www.w3.org/2000/svg">
<g clip-path="url(#clip0_101_14)">
<path d="M41.7782 28.5563L44.6604 27.3619C44.8147 27.2973 44.9807 27.265 45.1496 27.265H45.724C45.9708 27.265 46.1706 27.4648 46.1706 27.7116V30.4557C46.1706 30.8083 45.8842 31.0948 45.5316 31.0948H42.022C41.6695 31.0948 41.383 30.8083 41.383 30.4557V29.1453C41.383 28.8868 41.5387 28.6547 41.7782 28.5563ZM43.2986 12.4482C43.2986 12.1926 43.0842 11.9869 42.8285 12.0016C37.8676 12.2734 35.0044 15.9298 35.0044 20.4045L35 46.0232C35 46.3758 35.2865 46.6622 35.639 46.6622H36.1503C36.234 46.6622 36.3177 46.6461 36.3941 46.6138L39.3939 45.371C39.6319 45.2725 39.7876 45.0389 39.7876 44.7819V26.9917V18.4272C39.7876 16.0899 41.1171 14.0656 43.0592 13.0637C43.2061 12.9873 43.2986 12.8345 43.2986 12.6685V12.4482ZM49.1381 14.1861C48.7062 13.1563 47.6911 12.432 46.5041 12.4261C44.9601 12.4188 43.663 13.6704 43.6189 15.2144C43.6071 15.6287 43.6835 16.0253 43.8304 16.3838C43.9656 16.7128 44.3402 16.8729 44.6678 16.7363L48.7943 15.0264C49.1234 14.8912 49.2762 14.5137 49.1381 14.1861ZM119.877 27.1724C119.877 26.9168 119.663 26.7111 119.407 26.7258C114.446 26.9976 111.583 30.6555 111.583 35.1302L111.578 46.0247C111.578 46.3772 111.865 46.6637 112.217 46.6637H112.729C112.812 46.6637 112.896 46.6476 112.973 46.6152L115.972 45.3724C116.21 45.274 116.366 45.0404 116.366 44.7833V41.8658V33.1544C116.366 30.8171 117.695 28.7928 119.638 27.7909C119.784 27.7145 119.877 27.5617 119.877 27.3957V27.1724V27.1724ZM125.718 28.9103C125.285 27.8805 124.269 27.1563 123.084 27.1504C121.539 27.143 120.243 28.3947 120.199 29.9386C120.187 30.3529 120.263 30.7495 120.41 31.108C120.545 31.4371 120.92 31.5972 121.248 31.4606L125.374 29.7506C125.703 29.6169 125.855 29.2379 125.718 28.9103ZM56.2747 12.363H55.7635C55.6797 12.363 55.596 12.3791 55.5196 12.4115L52.68 13.5882C52.442 13.6866 52.2863 13.9202 52.2863 14.1773V38.559C52.2863 42.7384 55.3316 46.2068 59.3244 46.8664C59.5566 46.9046 59.7681 46.7225 59.7681 46.4874V46.2538C59.7681 46.1246 59.7005 46.0041 59.5933 45.9321C57.9773 44.8494 56.9137 43.0073 56.9137 40.9168V13.0005C56.9137 12.648 56.6273 12.363 56.2747 12.363ZM72.0405 46.2421C72.0405 46.6343 71.6909 46.937 71.303 46.8738C66.6065 46.1069 63.0118 41.8849 63.0118 36.7859C63.0118 31.6868 66.605 27.4648 71.303 26.6979C71.6894 26.6348 72.0405 26.9374 72.0405 27.3296V28.6591C72.0405 28.9514 71.8407 29.2056 71.5572 29.2776C68.3224 30.1002 67.6613 34.0769 67.6613 36.8108C67.6613 39.5447 68.3224 43.5214 71.5572 44.3441C71.8407 44.4161 72.0405 44.6702 72.0405 44.9626V46.2421ZM73.6359 27.3296V28.6591C73.6359 28.9514 73.8357 29.2056 74.1192 29.2776C77.354 30.1002 78.0151 34.0769 78.0151 36.8108C78.0151 39.5447 77.354 43.5214 74.1192 44.3441C73.8357 44.4161 73.6359 44.6702 73.6359 44.9626V46.2436C73.6359 46.6358 73.9855 46.9384 74.3733 46.8753C79.0699 46.1084 82.6646 41.8864 82.6646 36.7873C82.6646 31.6883 79.0714 27.4662 74.3733 26.6994C73.987 26.6348 73.6359 26.9374 73.6359 27.3296ZM134.352 19.7023C134.352 21.0509 133.259 22.1439 131.91 22.1439C130.561 22.1439 129.468 21.0509 129.468 19.7023C129.468 18.3537 130.561 17.2608 131.91 17.2608C133.259 17.2608 134.352 18.3537 134.352 19.7023ZM134.205 44.8627V27.6954C134.205 27.3428 133.918 27.0564 133.566 27.0564H130.254C129.902 27.0564 129.615 27.3428 129.615 27.6954V46.0232C129.615 46.3758 129.902 46.6622 130.254 46.6622H130.766C130.849 46.6622 130.933 46.6461 131.009 46.6138L133.809 45.4532C134.049 45.3548 134.205 45.1212 134.205 44.8627ZM105.12 45.4532L102.32 46.6138C102.243 46.6461 102.16 46.6622 102.077 46.6622H101.565C101.213 46.6622 100.926 46.3758 100.926 46.0232V27.6954C100.926 27.3428 101.213 27.0564 101.565 27.0564H104.877C105.229 27.0564 105.516 27.3428 105.516 27.6954V44.8627C105.514 45.1212 105.358 45.3548 105.12 45.4532ZM87.5654 39.9516C87.5654 43.7682 90.6871 47.0104 94.5051 47.0001C96.2783 46.9957 97.8942 46.3244 99.115 45.224C99.2516 45.1021 99.3295 44.9288 99.3295 44.7451V43.8094C99.3295 43.4715 98.9666 43.2526 98.6714 43.4157C98.0529 43.7579 97.3419 43.9548 96.5853 43.9607C94.1496 43.9754 92.1929 41.9437 92.1929 39.508V27.6969C92.1929 27.3443 91.9064 27.0578 91.5538 27.0578H88.2029C87.8504 27.0578 87.5639 27.3443 87.5639 27.6969L87.5654 39.9516ZM158.708 14.308C158.708 14.0524 158.861 13.8203 159.098 13.7204L161.949 12.5128C162.027 12.4805 162.109 12.4643 162.193 12.4643H162.704C163.057 12.4643 163.343 12.7508 163.343 13.1034V44.8142C163.343 45.0727 163.187 45.3048 162.949 45.4033L160.029 46.6123C159.951 46.6446 159.869 46.6608 159.785 46.6608H159.347C158.995 46.6608 158.71 46.3743 158.71 46.0232V14.308H158.708ZM172.955 46.6608H173.466C173.55 46.6608 173.634 46.6446 173.71 46.6123L176.55 45.4356C176.788 45.3372 176.944 45.1036 176.944 44.8465V34.503C176.944 30.469 173.738 27.1004 169.706 27.0446C168.01 27.0211 166.443 27.5735 165.19 28.5181C165.028 28.64 164.934 28.8295 164.934 29.0308V30.3309C164.934 30.6673 165.288 30.8774 165.588 30.726C166.199 30.419 166.886 30.2442 167.615 30.2354C170.201 30.2075 172.315 32.389 172.315 34.9745V46.0232C172.316 46.3758 172.603 46.6608 172.955 46.6608ZM152.031 30.1781L148.709 31.5546C148.397 31.6839 148.037 31.5487 147.889 31.2446C147.704 30.8656 147.614 30.4308 147.654 29.971C147.752 28.7898 148.713 27.8364 149.895 27.7454C151.046 27.6572 152.043 28.3682 152.394 29.3819C152.503 29.7006 152.343 30.0503 152.031 30.1781ZM149.674 35.6473C148.808 35.2625 147.599 34.6969 146.868 34.3516C142.492 32.2862 143.82 27.5647 147.448 27.5984C147.696 27.6014 147.899 27.4016 147.899 27.1519V27.0564C147.899 26.8228 147.72 26.6289 147.488 26.6098C147.163 26.5833 146.834 26.5701 146.502 26.5701C145.688 26.5701 144.892 26.6348 144.131 26.7993C141.764 27.3105 139.838 29.5934 139.838 31.9204C139.838 34.6146 142.245 36.4186 143.128 36.874C144.132 37.3926 147.261 39.0012 147.261 39.0012C150.626 40.457 149.287 44.9273 144.467 44.3323C143.476 44.2104 142.167 43.9592 141.213 43.4538C140.895 43.2849 140.504 43.3642 140.325 43.6757L139.94 44.3412C139.766 44.6408 139.865 45.0213 140.159 45.2049C141.963 46.3361 144.149 46.9987 146.503 46.9987C148.553 46.9987 153.894 46.1892 153.894 41.1122C153.893 37.3661 150.244 35.9015 149.674 35.6473Z" fill="#FF6442"/>
</g>
<defs>
<clipPath id="clip0_101_14">
<rect width="142.5" height="35" fill="white" transform="translate(35 12)"/>
</clipPath>
</defs>
</svg>
