<svg width="143" height="35" viewBox="0 0 143 35" fill="none" xmlns="http://www.w3.org/2000/svg">
<g clip-path="url(#clip0_28_434)">
<path d="M6.77817 16.5563L9.66044 15.3619C9.81469 15.2973 9.98069 15.265 10.1496 15.265H10.724C10.9708 15.265 11.1706 15.4648 11.1706 15.7116V18.4557C11.1706 18.8083 10.8842 19.0948 10.5316 19.0948H7.02204C6.66946 19.0948 6.383 18.8083 6.383 18.4557V17.1453C6.383 16.8868 6.53872 16.6547 6.77817 16.5563ZM8.29864 0.448185C8.29864 0.192571 8.08416 -0.013095 7.82854 0.00159545C2.86758 0.273369 0.00440714 3.92982 0.00440714 8.40453L0 34.0232C0 34.3758 0.286464 34.6622 0.639035 34.6622H1.15026C1.234 34.6622 1.31773 34.6461 1.39412 34.6138L4.39391 33.371C4.6319 33.2725 4.78762 33.0389 4.78762 32.7819V14.9917V6.4272C4.78762 4.08995 6.1171 2.0656 8.05918 1.06371C8.20609 0.987325 8.29864 0.834544 8.29864 0.668542V0.448185ZM14.1381 2.18607C13.7062 1.15626 12.6911 0.432026 11.5041 0.426149C9.96013 0.418804 8.66296 1.67043 8.61889 3.2144C8.60714 3.62867 8.68353 4.02531 8.83043 4.38376C8.96558 4.71282 9.34019 4.87295 9.66779 4.73633L13.7943 3.02636C14.1234 2.89121 14.2762 2.51366 14.1381 2.18607ZM84.877 15.1724C84.877 14.9168 84.6625 14.7111 84.4069 14.7258C79.446 14.9976 76.5828 18.6555 76.5828 23.1302L76.5784 34.0247C76.5784 34.3772 76.8648 34.6637 77.2174 34.6637H77.7286C77.8124 34.6637 77.8961 34.6476 77.9725 34.6152L80.9723 33.3724C81.2103 33.274 81.366 33.0404 81.366 32.7833V29.8658V21.1544C81.366 18.8171 82.6955 16.7928 84.6376 15.7909C84.7845 15.7145 84.877 15.5617 84.877 15.3957V15.1724V15.1724ZM90.7179 16.9103C90.2846 15.8805 89.2695 15.1563 88.0839 15.1504C86.5385 15.143 85.2428 16.3947 85.1987 17.9386C85.187 18.3529 85.2634 18.7495 85.4103 19.108C85.5454 19.4371 85.92 19.5972 86.2476 19.4606L90.3742 17.7506C90.7033 17.6169 90.8546 17.2379 90.7179 16.9103ZM21.2747 0.362981H20.7635C20.6797 0.362981 20.596 0.37914 20.5196 0.411459L17.68 1.58816C17.442 1.68659 17.2863 1.92017 17.2863 2.17725V26.559C17.2863 30.7384 20.3316 34.2068 24.3244 34.8664C24.5566 34.9046 24.7681 34.7225 24.7681 34.4874V34.2538C24.7681 34.1246 24.7005 34.0041 24.5933 33.9321C22.9773 32.8494 21.9137 31.0073 21.9137 28.9168V1.00055C21.9137 0.647975 21.6273 0.362981 21.2747 0.362981ZM37.0405 34.2421C37.0405 34.6343 36.6909 34.937 36.303 34.8738C31.6065 34.1069 28.0118 29.8849 28.0118 24.7859C28.0118 19.6868 31.605 15.4648 36.303 14.6979C36.6894 14.6348 37.0405 14.9374 37.0405 15.3296V16.6591C37.0405 16.9514 36.8407 17.2056 36.5572 17.2776C33.3224 18.1002 32.6613 22.0769 32.6613 24.8108C32.6613 27.5447 33.3224 31.5214 36.5572 32.3441C36.8407 32.4161 37.0405 32.6702 37.0405 32.9626V34.2421ZM38.6359 15.3296V16.6591C38.6359 16.9514 38.8357 17.2056 39.1192 17.2776C42.354 18.1002 43.0151 22.0769 43.0151 24.8108C43.0151 27.5447 42.354 31.5214 39.1192 32.3441C38.8357 32.4161 38.6359 32.6702 38.6359 32.9626V34.2436C38.6359 34.6358 38.9855 34.9384 39.3733 34.8753C44.0699 34.1084 47.6646 29.8864 47.6646 24.7873C47.6646 19.6883 44.0714 15.4662 39.3733 14.6994C38.987 14.6348 38.6359 14.9374 38.6359 15.3296ZM99.3515 7.70233C99.3515 9.05091 98.2586 10.1439 96.91 10.1439C95.5614 10.1439 94.4684 9.05091 94.4684 7.70233C94.4684 6.35375 95.5614 5.26078 96.91 5.26078C98.2586 5.26078 99.3515 6.35375 99.3515 7.70233ZM99.2046 32.8627V15.6954C99.2046 15.3428 98.9182 15.0564 98.5656 15.0564H95.2544C94.9018 15.0564 94.6153 15.3428 94.6153 15.6954V34.0232C94.6153 34.3758 94.9018 34.6622 95.2544 34.6622H95.7656C95.8493 34.6622 95.9331 34.6461 96.0094 34.6138L98.8094 33.4532C99.0489 33.3548 99.2046 33.1212 99.2046 32.8627ZM70.1205 33.4532L67.3205 34.6138C67.2426 34.6461 67.1603 34.6622 67.0766 34.6622H66.5654C66.2128 34.6622 65.9263 34.3758 65.9263 34.0232V15.6954C65.9263 15.3428 66.2128 15.0564 66.5654 15.0564H69.8766C70.2292 15.0564 70.5156 15.3428 70.5156 15.6954V32.8627C70.5142 33.1212 70.3584 33.3548 70.1205 33.4532ZM52.5654 27.9516C52.5654 31.7682 55.6871 35.0104 59.5051 35.0001C61.2783 34.9957 62.8942 34.3244 64.115 33.224C64.2516 33.1021 64.3295 32.9288 64.3295 32.7451V31.8094C64.3295 31.4715 63.9666 31.2526 63.6714 31.4157C63.0529 31.7579 62.3419 31.9548 61.5853 31.9607C59.1496 31.9754 57.1929 29.9437 57.1929 27.508V15.6969C57.1929 15.3443 56.9064 15.0578 56.5538 15.0578H53.2029C52.8504 15.0578 52.5639 15.3443 52.5639 15.6969L52.5654 27.9516ZM123.708 2.308C123.708 2.05238 123.861 1.82027 124.098 1.72038L126.949 0.512823C127.027 0.480504 127.109 0.464345 127.193 0.464345H127.704C128.057 0.464345 128.343 0.750808 128.343 1.10338V32.8142C128.343 33.0727 128.187 33.3048 127.949 33.4033L125.029 34.6123C124.951 34.6446 124.869 34.6608 124.785 34.6608H124.347C123.995 34.6608 123.71 34.3743 123.71 34.0232V2.308H123.708ZM137.955 34.6608H138.466C138.55 34.6608 138.634 34.6446 138.71 34.6123L141.55 33.4356C141.788 33.3372 141.944 33.1036 141.944 32.8465V22.503C141.944 18.469 138.738 15.1004 134.706 15.0446C133.01 15.0211 131.443 15.5735 130.19 16.5181C130.028 16.64 129.934 16.8295 129.934 17.0308V18.3309C129.934 18.6673 130.288 18.8774 130.588 18.726C131.199 18.419 131.886 18.2442 132.615 18.2354C135.201 18.2075 137.315 20.389 137.315 22.9745V34.0232C137.316 34.3758 137.603 34.6608 137.955 34.6608ZM117.031 18.1781L113.709 19.5546C113.397 19.6839 113.037 19.5487 112.889 19.2446C112.704 18.8656 112.614 18.4308 112.654 17.971C112.752 16.7898 113.713 15.8364 114.895 15.7454C116.046 15.6572 117.043 16.3682 117.394 17.3819C117.503 17.7006 117.343 18.0503 117.031 18.1781ZM114.674 23.6473C113.808 23.2625 112.599 22.6969 111.868 22.3516C107.492 20.2862 108.82 15.5647 112.448 15.5984C112.696 15.6014 112.899 15.4016 112.899 15.1519V15.0564C112.899 14.8228 112.72 14.6289 112.488 14.6098C112.163 14.5833 111.834 14.5701 111.502 14.5701C110.688 14.5701 109.892 14.6348 109.131 14.7993C106.764 15.3105 104.838 17.5934 104.838 19.9204C104.838 22.6146 107.245 24.4186 108.128 24.874C109.132 25.3926 112.261 27.0012 112.261 27.0012C115.626 28.457 114.287 32.9273 109.467 32.3323C108.476 32.2104 107.167 31.9592 106.213 31.4538C105.895 31.2849 105.504 31.3642 105.325 31.6757L104.94 32.3412C104.766 32.6408 104.865 33.0213 105.159 33.2049C106.963 34.3361 109.149 34.9987 111.503 34.9987C113.553 34.9987 118.894 34.1892 118.894 29.1122C118.893 25.3661 115.244 23.9015 114.674 23.6473Z" fill="#FF6442"/>
</g>
<defs>
<clipPath id="clip0_28_434">
<rect width="142.5" height="35" fill="white"/>
</clipPath>
</defs>
</svg>
