<svg width="354" height="56" viewBox="0 0 354 56" fill="none" xmlns="http://www.w3.org/2000/svg">
<mask id="mask0_2342_346" style="mask-type:luminance" maskUnits="userSpaceOnUse" x="0" y="10" width="143" height="36">
<path d="M142.5 10.5H0V45.5H142.5V10.5Z" fill="white"/>
</mask>
<g mask="url(#mask0_2342_346)">
<path d="M6.7782 27.0564L9.6604 25.862C9.8147 25.7974 9.9807 25.7651 10.1496 25.7651H10.724C10.9708 25.7651 11.1706 25.9649 11.1706 26.2117V28.9558C11.1706 29.3084 10.8842 29.5949 10.5316 29.5949H7.022C6.6695 29.5949 6.383 29.3084 6.383 28.9558V27.6454C6.383 27.3869 6.5387 27.1548 6.7782 27.0564ZM8.2986 10.9483C8.2986 10.6927 8.0842 10.487 7.8285 10.5017C2.8676 10.7735 0.00439835 14.4299 0.00439835 18.9046L0 44.5233C0 44.8759 0.2865 45.1623 0.639 45.1623H1.1503C1.234 45.1623 1.3177 45.1462 1.3941 45.1139L4.3939 43.8711C4.6319 43.7726 4.7876 43.539 4.7876 43.282V25.4918V16.9273C4.7876 14.59 6.1171 12.5657 8.0592 11.5638C8.2061 11.4874 8.2986 11.3346 8.2986 11.1686V10.9483ZM14.1381 12.6862C13.7062 11.6564 12.6911 10.9321 11.5041 10.9262C9.9601 10.9189 8.663 12.1705 8.6189 13.7145C8.6071 14.1288 8.6835 14.5254 8.8304 14.8839C8.9656 15.2129 9.3402 15.373 9.6678 15.2364L13.7943 13.5265C14.1234 13.3913 14.2762 13.0138 14.1381 12.6862ZM84.877 25.6725C84.877 25.4169 84.663 25.2112 84.407 25.2259C79.446 25.4977 76.583 29.1556 76.583 33.6303L76.578 44.5248C76.578 44.8773 76.865 45.1638 77.217 45.1638H77.729C77.812 45.1638 77.896 45.1477 77.973 45.1153L80.972 43.8725C81.21 43.7741 81.366 43.5405 81.366 43.2834V40.3659V31.6545C81.366 29.3172 82.695 27.2929 84.638 26.291C84.784 26.2146 84.877 26.0618 84.877 25.8958V25.6725ZM90.718 27.4104C90.285 26.3806 89.269 25.6564 88.084 25.6505C86.539 25.6431 85.243 26.8948 85.199 28.4387C85.187 28.853 85.263 29.2496 85.41 29.6081C85.545 29.9372 85.92 30.0973 86.248 29.9607L90.374 28.2507C90.703 28.117 90.855 27.738 90.718 27.4104ZM21.2747 10.8631H20.7635C20.6797 10.8631 20.596 10.8792 20.5196 10.9116L17.68 12.0883C17.442 12.1867 17.2863 12.4203 17.2863 12.6774V37.0591C17.2863 41.2385 20.3316 44.7069 24.3244 45.3665C24.5566 45.4047 24.7681 45.2226 24.7681 44.9875V44.7539C24.7681 44.6247 24.7005 44.5042 24.5933 44.4322C22.9773 43.3495 21.9137 41.5074 21.9137 39.4169V11.5006C21.9137 11.1481 21.6273 10.8631 21.2747 10.8631ZM37.0405 44.7422C37.0405 45.1344 36.6909 45.4371 36.303 45.3739C31.6065 44.607 28.0118 40.385 28.0118 35.286C28.0118 30.1869 31.605 25.9649 36.303 25.198C36.6894 25.1349 37.0405 25.4375 37.0405 25.8297V27.1592C37.0405 27.4515 36.8407 27.7057 36.5572 27.7777C33.3224 28.6003 32.6613 32.577 32.6613 35.3109C32.6613 38.0448 33.3224 42.0215 36.5572 42.8442C36.8407 42.9162 37.0405 43.1703 37.0405 43.4627V44.7422ZM38.6359 25.8297V27.1592C38.6359 27.4515 38.8357 27.7057 39.1192 27.7777C42.354 28.6003 43.0151 32.577 43.0151 35.3109C43.0151 38.0448 42.354 42.0215 39.1192 42.8442C38.8357 42.9162 38.6359 43.1703 38.6359 43.4627V44.7437C38.6359 45.1359 38.9855 45.4385 39.3733 45.3754C44.0699 44.6085 47.6646 40.3865 47.6646 35.2874C47.6646 30.1884 44.0714 25.9663 39.3733 25.1995C38.987 25.1349 38.6359 25.4375 38.6359 25.8297ZM99.352 18.2024C99.352 19.551 98.259 20.644 96.91 20.644C95.561 20.644 94.468 19.551 94.468 18.2024C94.468 16.8538 95.561 15.7609 96.91 15.7609C98.259 15.7609 99.352 16.8538 99.352 18.2024ZM99.205 43.3628V26.1955C99.205 25.8429 98.918 25.5565 98.566 25.5565H95.254C94.902 25.5565 94.615 25.8429 94.615 26.1955V44.5233C94.615 44.8759 94.902 45.1623 95.254 45.1623H95.766C95.849 45.1623 95.933 45.1462 96.009 45.1139L98.809 43.9533C99.049 43.8549 99.205 43.6213 99.205 43.3628ZM70.12 43.9533L67.32 45.1139C67.243 45.1462 67.16 45.1623 67.077 45.1623H66.565C66.213 45.1623 65.926 44.8759 65.926 44.5233V26.1955C65.926 25.8429 66.213 25.5565 66.565 25.5565H69.877C70.229 25.5565 70.516 25.8429 70.516 26.1955V43.3628C70.514 43.6213 70.358 43.8549 70.12 43.9533ZM52.5654 38.4517C52.5654 42.2683 55.6871 45.5105 59.5051 45.5002C61.2783 45.4958 62.8942 44.8245 64.115 43.7241C64.2516 43.6022 64.3295 43.4289 64.3295 43.2452V42.3095C64.3295 41.9716 63.9666 41.7527 63.6714 41.9158C63.0529 42.258 62.3419 42.4549 61.5853 42.4608C59.1496 42.4755 57.1929 40.4438 57.1929 38.0081V26.197C57.1929 25.8444 56.9064 25.5579 56.5538 25.5579H53.2029C52.8504 25.5579 52.5639 25.8444 52.5639 26.197L52.5654 38.4517ZM123.708 12.8081C123.708 12.5525 123.861 12.3204 124.098 12.2205L126.949 11.0129C127.027 10.9806 127.109 10.9644 127.193 10.9644H127.704C128.057 10.9644 128.343 11.2509 128.343 11.6035V43.3143C128.343 43.5728 128.187 43.8049 127.949 43.9034L125.029 45.1124C124.951 45.1447 124.869 45.1609 124.785 45.1609H124.347C123.995 45.1609 123.71 44.8744 123.71 44.5233V12.8081H123.708ZM137.955 45.1609H138.466C138.55 45.1609 138.634 45.1447 138.71 45.1124L141.55 43.9357C141.788 43.8373 141.944 43.6037 141.944 43.3466V33.0031C141.944 28.9691 138.738 25.6005 134.706 25.5447C133.01 25.5212 131.443 26.0736 130.19 27.0182C130.028 27.1401 129.934 27.3296 129.934 27.5309V28.831C129.934 29.1674 130.288 29.3775 130.588 29.2261C131.199 28.9191 131.886 28.7443 132.615 28.7355C135.201 28.7076 137.315 30.8891 137.315 33.4746V44.5233C137.316 44.8759 137.603 45.1609 137.955 45.1609ZM117.031 28.6782L113.709 30.0547C113.397 30.184 113.037 30.0488 112.889 29.7447C112.704 29.3657 112.614 28.9309 112.654 28.4711C112.752 27.2899 113.713 26.3365 114.895 26.2455C116.046 26.1573 117.043 26.8683 117.394 27.882C117.503 28.2007 117.343 28.5504 117.031 28.6782ZM114.674 34.1474C113.808 33.7626 112.599 33.197 111.868 32.8517C107.492 30.7863 108.82 26.0648 112.448 26.0985C112.696 26.1015 112.899 25.9017 112.899 25.652V25.5565C112.899 25.3229 112.72 25.129 112.488 25.1099C112.163 25.0834 111.834 25.0702 111.502 25.0702C110.688 25.0702 109.892 25.1349 109.131 25.2994C106.764 25.8106 104.838 28.0935 104.838 30.4205C104.838 33.1147 107.245 34.9187 108.128 35.3741C109.132 35.8927 112.261 37.5013 112.261 37.5013C115.626 38.9571 114.287 43.4274 109.467 42.8324C108.476 42.7105 107.167 42.4593 106.213 41.9539C105.895 41.785 105.504 41.8643 105.325 42.1758L104.94 42.8413C104.766 43.1409 104.865 43.5214 105.159 43.705C106.963 44.8362 109.149 45.4988 111.503 45.4988C113.553 45.4988 118.894 44.6893 118.894 39.6123C118.893 35.8662 115.244 34.4016 114.674 34.1474Z" fill="white"/>
</g>
<path d="M190.5 20L174.5 36M174.5 20L190.5 36" stroke="white" stroke-width="2" stroke-linecap="round" stroke-linejoin="round"/>
<mask id="mask1_2342_346" style="mask-type:luminance" maskUnits="userSpaceOnUse" x="278" y="11" width="73" height="32">
<path d="M350.971 11H278.5V43H350.971V11Z" fill="white"/>
</mask>
<g mask="url(#mask1_2342_346)">
<path d="M278.5 42.3233L285.012 11.6016H291.961L285.408 42.3233H278.5Z" fill="white"/>
<path d="M301.1 30.8841H297.886L295.456 42.3233H288.597L295.109 11.6016H306.182C312.082 11.6016 315.172 15.0243 315.172 19.5769C315.172 24.6903 312.049 28.3769 307.703 29.8449L312.305 42.3233H305.058L301.1 30.8841ZM303.009 24.9872C306.182 24.9872 308.091 23.1233 308.091 20.5666C308.091 18.7026 307.008 17.4903 304.488 17.4903H300.712L299.108 24.9872H303.009Z" fill="white"/>
<path d="M320.107 14.1913L314.142 42.3233H321.05L327.603 11.6016H327.561L320.107 14.1913Z" fill="white"/>
<path d="M341.476 24.6495L338.22 23.264C337.005 22.7444 336.047 21.9196 336.047 20.3608C336.047 18.6701 337.526 16.9381 340.038 16.9381C344.202 16.9381 344.599 20.1464 344.599 21.0123L344.773 20.9877L350.896 18.8597C350.433 15.6103 347.897 11 340.352 11C334.402 11 329.147 14.9011 329.147 20.9711C329.147 24.6577 331.056 27.734 335.22 29.4248L338.823 30.9011C340.559 31.6351 341.038 32.633 341.038 33.8453C341.038 35.7918 339.517 37.0536 336.873 37.0536C333.096 36.9711 331.535 34.4556 331.535 31.8989C331.535 31.5114 331.576 31.1155 331.625 30.9011H331.609L325.246 33.1114C325.246 33.1278 325.246 33.136 325.246 33.1526C325.246 37.136 328.287 42.9918 337.013 42.9918C344.136 42.9918 348.169 38.134 348.169 33.3258C348.169 29.5485 346.252 26.6866 341.476 24.6495Z" fill="white"/>
</g>
<g clip-path="url(#clip0_2342_346)">
<path d="M248.137 0L246.895 0.432184L245.396 0.953902L244.153 1.38647L242.719 1.88532L241.477 2.31789L240.022 2.8245L238.779 3.25707L237.294 3.77375L236.052 4.20593L234.553 4.72765L233.311 5.16022L231.863 5.66411L230.62 6.09668L229.162 6.60445L227.919 7.03663L226.459 7.54478L225.217 7.97735L223.742 8.49055L222.5 8.92273V10.2487V11.7883V13.1143V14.6539V15.9799V17.5195V18.8455L223.742 18.4133L225.217 17.8997V19.4397V20.7653L226.459 20.3331L227.919 19.825V21.3645V22.6906L229.162 22.258L230.62 21.7502V23.1514V24.477V26.017V27.3426V28.8826V30.2082V31.7482L229.162 32.2559L227.919 32.6881L226.459 33.1963L225.217 33.6288L223.742 34.142L222.5 34.5742V35.9002V37.4398V38.7658V40.3054V41.631V43.1551V44.4811L223.742 44.0489L225.217 43.5353V45.0753V46.4009L226.459 45.9687L227.919 45.4606V47.0001V48.3261L229.162 47.8936L230.62 47.3858V48.9258V50.2514L231.863 49.8192L233.311 49.3149V50.8549V52.1805L234.553 51.7483L236.052 51.2266V52.7662V54.0922L237.294 53.66L238.779 53.1429V54.674V56L240.022 55.5674L241.477 55.0608L242.719 54.6283L244.153 54.1294L245.396 53.6968L246.895 53.1751L248.137 52.7429L249.625 52.2247L250.868 51.7921L252.336 51.2813L253.579 50.8487L255.031 50.3433L256.274 49.9107L257.772 49.3894L259.015 48.9568L260.513 48.4355L261.755 48.0033L263.258 47.48L264.5 47.0478V45.7218V44.1908V42.8651V41.3252V39.9996V38.4596V37.134L263.258 37.5662L261.755 38.0894V36.5495V35.2238L260.513 35.656L259.015 36.1774V34.6378V33.3118L257.772 33.7443L256.274 34.2661V32.7261V31.4005V29.8764V28.5508V27.0108V25.6852V24.1452L257.772 23.6235L259.015 23.1913L260.513 22.6696L261.755 22.2374L263.258 21.7142L264.5 21.282V19.9564V18.4164V17.0908V15.5508V14.2252V12.6852V11.3596L263.258 11.7918L261.755 12.3151V10.9139V9.58825L260.513 10.0204L259.015 10.5418V9.00219V7.67618L257.772 8.10875L256.274 8.63047V7.09051V5.76489L255.031 6.19707L253.579 6.7029V5.16294V3.83732L252.336 4.2695L250.868 4.78036V3.24079V1.91478L249.625 2.34735L248.137 2.86558V1.32562V0ZM246.895 1.75819V3.29777L245.396 3.81949L244.153 4.25205L242.719 4.75091L241.477 5.18348L240.022 5.69008L238.779 6.12265L237.294 6.63933L236.052 7.07152L234.553 7.59324L233.311 8.02581L231.863 8.5297L230.62 8.96227L229.162 9.47003L227.919 9.90221L226.459 10.4104L225.217 10.8429V12.1686V13.7085V15.0341V16.5741L223.742 17.0873V15.5477V14.2217V12.6821V11.3561V9.81655L225.217 9.30297L226.459 8.87079L227.919 8.36264L229.162 7.93007L230.62 7.4223L231.863 6.99012L233.311 6.48584L234.553 6.05366L236.052 5.53193L237.294 5.09976L238.779 4.58269L240.022 4.15011L241.477 3.6439L242.719 3.21133L244.153 2.71209L245.396 2.27952L246.895 1.75819ZM249.625 3.67336V5.21294L248.137 5.73117V4.1912L249.625 3.67336ZM246.895 4.62377V6.16335L245.396 6.68507L244.153 7.11764L242.719 7.61649L241.477 8.04906L240.022 8.55566L238.779 8.98824L237.294 9.50491L236.052 9.9371L234.553 10.4588L233.311 10.8914L231.863 11.3953L230.62 11.8278L229.162 12.3356L227.919 12.7678V14.0938V15.6334L226.459 16.1415V14.602V13.276V11.7364L227.919 11.2282L229.162 10.7956L230.62 10.2879L231.863 9.8557L233.311 9.35142L234.553 8.91924L236.052 8.39752L237.294 7.96534L238.779 7.44827L240.022 7.0157L241.477 6.50948L242.719 6.07691L244.153 5.57768L245.396 5.1451L246.895 4.62377ZM252.336 5.59551V7.13508L250.868 7.64595V6.10637L252.336 5.59551ZM249.625 6.53894V8.07852L248.137 8.59675V7.05679L249.625 6.53894ZM246.895 7.48935V9.02893L245.396 9.55065L244.153 9.98322L242.719 10.4821L241.477 10.9146L240.022 11.4212L238.779 11.8538L237.294 12.3705L236.052 12.8027L234.553 13.3244L233.311 13.757L231.863 14.2609L230.62 14.6934L229.162 15.2012V13.6612L230.62 13.1535L231.863 12.7213L233.311 12.217L234.553 11.7848L236.052 11.2631L237.294 10.8309L238.779 10.3139L240.022 9.88128L241.477 9.37507L242.719 8.9425L244.153 8.44326L245.396 8.01069L246.895 7.48935ZM255.031 7.52308V9.06266L253.579 9.56848V8.02852L255.031 7.52308ZM252.336 8.46109V10.0007L250.868 10.5115V8.97196L252.336 8.46109ZM249.625 9.40453V10.9441L248.137 11.4623L246.895 11.8945L245.396 12.4162L244.153 12.8488L242.719 13.3477L241.477 13.7802L240.022 14.2868V12.7469L241.477 12.2407L242.719 11.8081L244.153 11.3088L245.396 10.8763L246.895 10.3549L248.137 9.92237L249.625 9.40453ZM257.772 9.43437V10.9743L256.274 11.4961V9.95609L257.772 9.43437ZM255.031 10.3887V11.9282L253.579 12.4341V10.8941L255.031 10.3887ZM252.336 11.3267V12.8662L250.868 13.3771L249.625 13.8097L248.137 14.3279L246.895 14.7601L245.396 15.2818L244.153 15.7144L242.719 16.2132V14.6737L244.153 14.1744L245.396 13.7419L246.895 13.2205L248.137 12.7879L249.625 12.2701L250.868 11.8375L252.336 11.3267ZM260.513 11.3461V12.7473L259.015 13.2686V11.8678L260.513 11.3461ZM257.772 12.3V13.7012L256.274 14.2229V12.8217L257.772 12.3ZM263.258 13.1174V14.6574V15.983V17.523V18.8486V20.3886L261.755 20.9118L260.513 21.344L259.015 21.8653L257.772 22.2979L256.274 22.8196L255.031 23.2518V24.5778V26.1174V27.4434V28.983V30.3086V31.8327L253.579 32.3385V30.8144V29.4888V27.9488V26.6232V25.0833V23.7576V22.2177L255.031 21.7122L256.274 21.2797L257.772 20.7579L259.015 20.3258L260.513 19.804L261.755 19.3719V18.0462V16.5063V15.1807V13.6407L263.258 13.1174ZM238.779 13.1794V14.7194L237.294 15.2361L236.052 15.6683L234.553 16.19L233.311 16.6226L231.863 17.1265V15.5869L233.311 15.0826L234.553 14.6504L236.052 14.1287L237.294 13.6965L238.779 13.1794ZM255.031 13.2543V14.6551L253.579 15.1609L252.336 15.5931L250.868 16.1039L249.625 16.5365L248.137 17.0547L246.895 17.4869L245.396 18.0086V16.6074L246.895 16.0861L248.137 15.6535L249.625 15.1357L250.868 14.7031L252.336 14.1923L253.579 13.7597L255.031 13.2543ZM260.513 14.0729V15.6128V16.9385V18.4784L259.015 18.9998L257.772 19.4323L256.274 19.954L255.031 20.3862L253.579 20.8921L252.336 21.3242V22.6503V24.1898V25.5158V27.0554V28.3814V29.921L250.868 30.4319V28.8923V27.5663V26.0267V24.7007V23.1611V21.8351V20.2955L252.336 19.7847L253.579 19.3521L255.031 18.8467L256.274 18.4141L257.772 17.8924L259.015 17.4602V16.1342V14.5946L260.513 14.0729ZM257.772 15.0268V16.5667L256.274 17.0885L255.031 17.5206L253.579 18.0265L252.336 18.4587L250.868 18.9695L249.625 19.4021V20.7281V22.2677V23.5937V25.1333V26.4593V27.9988L248.137 28.5171V26.9771V25.6515V24.1115V22.7859V21.2459V19.9203V18.3804L249.625 17.8625L250.868 17.4299L252.336 16.9191L253.579 16.4865L255.031 15.9811L256.274 15.5485L257.772 15.0268ZM241.477 15.1062V16.6458L240.022 17.1524V15.6125L241.477 15.1062ZM230.62 16.019V17.559L229.162 18.0668V16.5268L230.62 16.019ZM238.779 16.045V17.585L237.294 18.1017L236.052 18.5338L234.553 19.0556V17.516L236.052 16.9943L237.294 16.5621L238.779 16.045ZM227.919 16.9594V18.499L226.459 19.0071V17.4675L227.919 16.9594ZM244.153 17.04V18.4412L242.719 18.9401V17.5392L244.153 17.04ZM233.311 17.9482V19.4881L231.863 19.992V18.4525L233.311 17.9482ZM241.477 17.9718V19.3726L240.022 19.8792V18.478L241.477 17.9718ZM246.895 18.8129V20.3525V21.6785V23.2181V24.5441V26.0837L245.396 26.6054V25.0654V23.7398V22.1998V20.8742V19.3343L246.895 18.8129ZM230.62 18.8846V20.4246L229.162 20.9324V19.3924L230.62 18.8846ZM238.779 18.9106V20.3118L237.294 20.8285V19.4277L238.779 18.9106ZM244.153 19.7668V21.3068V22.6324V24.1724L242.719 24.6712V23.1317V21.8056V20.2661L244.153 19.7668ZM236.052 19.8599V21.2607L234.553 21.7824V20.3816L236.052 19.8599ZM241.477 20.6986V22.2382L240.022 22.7448V21.2048L241.477 20.6986ZM233.311 20.8138V22.215L231.863 22.7188V21.318L233.311 20.8138ZM238.779 21.6374V23.1774L237.294 23.6941V22.1545L238.779 21.6374ZM236.052 22.5867V24.1263L234.553 24.648V23.1084L236.052 22.5867ZM233.311 23.5406V25.0805V26.4062V27.9461V29.2717V30.8117V32.1373V33.6773L231.863 34.1812L230.62 34.6137L229.162 35.1215L227.919 35.5537L226.459 36.0619L225.217 36.4944V37.82V39.36V40.6856V42.2097L223.742 42.7229V41.1988V39.8732V38.3336V37.0076V35.468L225.217 34.9545L226.459 34.5223L227.919 34.0141L229.162 33.5816L230.62 33.0738L231.863 32.6416V31.3156V29.776V28.45V26.9104V25.5844V24.0449L233.311 23.5406ZM241.477 23.5642V25.1038L240.022 25.6104V24.0704L241.477 23.5642ZM238.779 24.503V26.043L237.294 26.5597V25.0201L238.779 24.503ZM236.052 25.4523V26.9918V28.3178V29.8574V31.1834V32.723V34.049V35.5886L234.553 36.1103L233.311 36.5429L231.863 37.0468L230.62 37.4793L229.162 37.9871L227.919 38.4193V39.7449V41.269L226.459 41.7771V40.2531V38.9274V37.3879L227.919 36.8797L229.162 36.4471L230.62 35.9394L231.863 35.5072L233.311 35.0029L234.553 34.5707V33.2447V31.7051V30.3791V28.8396V27.5136V25.974L236.052 25.4523ZM244.153 25.498V27.038L242.719 27.5368V25.9972L244.153 25.498ZM241.477 26.4298V27.9694L240.022 28.476V26.936L241.477 26.4298ZM238.779 27.3686V28.9086V30.2342V31.7741V33.0998V34.6397V35.9653V37.4894L237.294 38.0061L236.052 38.4383L234.553 38.96L233.311 39.3926L231.863 39.8965L230.62 40.329L229.162 40.8368V39.3127L230.62 38.805L231.863 38.3724L233.311 37.8685L234.553 37.4359L236.052 36.9146L237.294 36.482V35.1564V33.6168V32.2908V30.7512V29.4252V27.8857L238.779 27.3686ZM246.895 27.4097V28.9493L245.396 29.471V27.931L246.895 27.4097ZM244.153 28.3636V29.9035L242.719 30.4024V28.8628L244.153 28.3636ZM241.477 29.2954V30.835V32.161V33.7005V35.0262V36.5502L240.022 37.0568V35.5328V34.2071V32.6672V31.3416V29.8016L241.477 29.2954ZM249.625 29.3248V30.8644L248.137 31.3827V29.8427L249.625 29.3248ZM246.895 30.2753V31.8148L245.396 32.3366V30.7966L246.895 30.2753ZM244.153 31.2292V32.7691V34.0947V35.6188L242.719 36.1177V34.594V33.268V31.7284L244.153 31.2292ZM252.336 31.2466V32.7707L250.868 33.2815V31.7575L252.336 31.2466ZM249.625 32.19V33.7141L248.137 34.2323V32.7083L249.625 32.19ZM246.895 33.1405V34.6645L245.396 35.1862V33.6622L246.895 33.1405ZM255.031 33.1587V34.6982L253.579 35.2041V33.6641L255.031 33.1587ZM252.336 34.0967V35.6363L250.868 36.1471V34.6075L252.336 34.0967ZM249.625 35.0401V36.5797L248.137 37.0979V35.558L249.625 35.0401ZM257.772 35.07V36.6099L256.274 37.1316V35.5917L257.772 35.07ZM246.895 35.9905V37.5301L245.396 38.0518V36.5119L246.895 35.9905ZM255.031 36.0243V37.5638L253.579 38.0697V36.5297L255.031 36.0243ZM244.153 36.9444V38.4844L242.719 38.9833V37.4437L244.153 36.9444ZM252.336 36.9623V38.5018L250.868 39.0127L249.625 39.4453L248.137 39.9635V38.4235L249.625 37.9057L250.868 37.4731L252.336 36.9623ZM260.513 36.9816V38.5216L259.015 39.0429V37.5034L260.513 36.9816ZM241.477 37.8762V39.4158L240.022 39.9224L238.779 40.355L237.294 40.8717L236.052 41.3039L234.553 41.8256L233.311 42.2581L231.863 42.762V41.2225L233.311 40.7182L234.553 40.286L236.052 39.7643L237.294 39.3321L238.779 38.815L240.022 38.3825L241.477 37.8762ZM257.772 37.9355V39.4755L256.274 39.9972V38.4573L257.772 37.9355ZM246.895 38.8561V40.3957L245.396 40.9174V39.3774L246.895 38.8561ZM255.031 38.8898V40.4294L253.579 40.9352L252.336 41.3674L250.868 41.8783L249.625 42.3109L248.137 42.8291V41.2891L249.625 40.7713L250.868 40.3387L252.336 39.8278L253.579 39.3953L255.031 38.8898ZM263.258 38.8918V40.4318V41.7574V43.2974V44.623V46.154L261.755 46.6769L260.513 47.1095L259.015 47.6308L257.772 48.0634L256.274 48.5847L255.031 49.0173L253.579 49.5227L252.336 49.9553L250.868 50.4662L249.625 50.8987L248.137 51.417L246.895 51.8492L245.396 52.3709L244.153 52.8034L242.719 53.3023L241.477 53.7349L240.022 54.2415V52.7104L241.477 52.2042L242.719 51.7716L244.153 51.2724L245.396 50.8398L246.895 50.3185L248.137 49.8859L249.625 49.3681L250.868 48.9355L252.336 48.4246L253.579 47.9921L255.031 47.4866L256.274 47.0541L257.772 46.5323L259.015 46.1002L260.513 45.5784L261.755 45.1463V43.8206V42.2807V40.9551V39.4151L263.258 38.8918ZM244.153 39.8101V41.35L242.719 41.8489L241.477 42.2815L240.022 42.7881L238.779 43.2206L237.294 43.7373L236.052 44.1695L234.553 44.6912V43.1516L236.052 42.6299L237.294 42.1977L238.779 41.6807L240.022 41.2481L241.477 40.7419L242.719 40.3093L244.153 39.8101ZM260.513 39.8473V41.3872V42.7129V44.2528L259.015 44.7742L257.772 45.2067L256.274 45.7284L255.031 46.1606L253.579 46.6665L252.336 47.0986L250.868 47.6095L249.625 48.0421L248.137 48.5603L246.895 48.9925L245.396 49.5142L244.153 49.9468L242.719 50.4456L241.477 50.8782L240.022 51.3848V49.8448L241.477 49.3386L242.719 48.9061L244.153 48.4068L245.396 47.9742L246.895 47.4529L248.137 47.0203L249.625 46.5025L250.868 46.0699L252.336 45.5591L253.579 45.1265L255.031 44.6211L256.274 44.1885L257.772 43.6668L259.015 43.2346V41.9086V40.369L260.513 39.8473ZM257.772 40.8012V42.3411L256.274 42.8629L255.031 43.295L253.579 43.8009L252.336 44.2331L250.868 44.7439L249.625 45.1765L248.137 45.6947L246.895 46.1269L245.396 46.6486L244.153 47.0812L242.719 47.58L241.477 48.0126L240.022 48.5192V46.9793L241.477 46.473L242.719 46.0405L244.153 45.5412L245.396 45.1087L246.895 44.5873L248.137 44.1548L249.625 43.6369L250.868 43.2043L252.336 42.6935L253.579 42.2609L255.031 41.7555L256.274 41.3229L257.772 40.8012ZM230.62 41.6546V43.1946L229.162 43.7024V42.1624L230.62 41.6546ZM246.895 41.7217V43.2613L245.396 43.783L244.153 44.2156L242.719 44.7144L241.477 45.147L240.022 45.6536L238.779 46.0862L237.294 46.6028V45.0633L238.779 44.5462L240.022 44.1136L241.477 43.6074L242.719 43.1748L244.153 42.6756L245.396 42.243L246.895 41.7217ZM227.919 42.595V44.1346L226.459 44.6427V43.1031L227.919 42.595ZM233.311 43.5838V45.1237L231.863 45.6276V44.088L233.311 43.5838ZM230.62 44.5202V46.0602L229.162 46.568V45.028L230.62 44.5202ZM236.052 45.4954V47.035L234.553 47.5567V46.0172L236.052 45.4954ZM233.311 46.4493V47.9893L231.863 48.4932V46.9536L233.311 46.4493ZM238.779 47.4118V48.9517L237.294 49.4684V47.9288L238.779 47.4118ZM236.052 48.361V49.9006L234.553 50.4223V48.8827L236.052 48.361ZM238.779 50.2774V51.8173L237.294 52.334V50.7944L238.779 50.2774Z" fill="white"/>
</g>
<defs>
<clipPath id="clip0_2342_346">
<rect width="42" height="56" fill="white" transform="translate(222.5)"/>
</clipPath>
</defs>
</svg>
