<svg width="80" height="35" viewBox="0 0 80 35" fill="none" xmlns="http://www.w3.org/2000/svg">
<g clip-path="url(#clip0_28_426)">
<path d="M0 34.2603L7.12207 0.658508H14.7232L7.55591 34.2603H0Z" fill="#F93958"/>
<path d="M24.7194 21.7487H21.2035L18.5463 34.2603H11.0446L18.1667 0.658508H30.2778C36.7311 0.658508 40.1114 4.40206 40.1114 9.38145C40.1114 14.9742 36.6949 19.0064 31.9409 20.6121L36.9751 34.2603H29.0486L24.7194 21.7487ZM26.8072 15.299C30.2778 15.299 32.3656 13.2603 32.3656 10.4639C32.3656 8.42526 31.1816 7.09923 28.425 7.09923H24.2946L22.5412 15.299H26.8072Z" fill="#F93958"/>
<path d="M45.5072 3.49098L38.9816 34.2603H46.5375L53.7048 0.658508H53.6596L45.5072 3.49098Z" fill="#F93958"/>
<path d="M68.8799 14.9291L65.3188 13.4137C63.9902 12.8454 62.9418 11.9433 62.9418 10.2384C62.9418 8.38918 64.5596 6.49485 67.3072 6.49485C71.8625 6.49485 72.2963 10.0039 72.2963 10.951L72.4861 10.924L79.1834 8.59665C78.6772 5.04253 75.9025 0 67.6507 0C61.1432 0 55.3949 4.26675 55.3949 10.9059C55.3949 14.9381 57.4827 18.3028 62.038 20.1521L65.9786 21.7668C67.8766 22.5696 68.4008 23.6611 68.4008 24.9871C68.4008 27.116 66.7378 28.4961 63.8456 28.4961C59.7152 28.4059 58.0069 25.6546 58.0069 22.8582C58.0069 22.4343 58.0521 22.0013 58.1064 21.7668H58.0883L51.1289 24.1843C51.1289 24.2023 51.1289 24.2113 51.1289 24.2294C51.1289 28.5863 54.4549 34.991 63.9993 34.991C71.7901 34.991 76.2008 29.6778 76.2008 24.4188C76.2008 20.2874 74.1039 17.1572 68.8799 14.9291Z" fill="#F93958"/>
</g>
<defs>
<clipPath id="clip0_28_426">
<rect width="79.2647" height="35" fill="white"/>
</clipPath>
</defs>
</svg>
