<svg width="212" height="60" viewBox="0 0 212 60" fill="none" xmlns="http://www.w3.org/2000/svg">
<g clip-path="url(#clip0_101_15)">
<path d="M66 47.2603L73.1221 13.6584H80.7232L73.5559 47.2603H66Z" fill="#F93958"/>
<path d="M90.7194 34.7487H87.2036L84.5464 47.2603H77.0447L84.1668 13.6584H96.2779C102.731 13.6584 106.111 17.402 106.111 22.3814C106.111 27.9742 102.695 32.0064 97.9409 33.6121L102.975 47.2603H95.0487L90.7194 34.7487ZM92.8072 28.2989C96.2779 28.2989 98.3657 26.2603 98.3657 23.4639C98.3657 21.4252 97.1817 20.0992 94.4251 20.0992H90.2946L88.5412 28.2989H92.8072Z" fill="#F93958"/>
<path d="M111.507 16.4909L104.982 47.2603H112.538L119.705 13.6584H119.66L111.507 16.4909Z" fill="#F93958"/>
<path d="M134.88 27.9291L131.319 26.4137C129.99 25.8454 128.942 24.9433 128.942 23.2384C128.942 21.3892 130.56 19.4948 133.307 19.4948C137.862 19.4948 138.296 23.0039 138.296 23.951L138.486 23.924L145.183 21.5966C144.677 18.0425 141.903 13 133.651 13C127.143 13 121.395 17.2668 121.395 23.9059C121.395 27.9381 123.483 31.3028 128.038 33.1521L131.979 34.7668C133.877 35.5696 134.401 36.6611 134.401 37.9871C134.401 40.116 132.738 41.4961 129.846 41.4961C125.715 41.4059 124.007 38.6546 124.007 35.8582C124.007 35.4343 124.052 35.0013 124.106 34.7668H124.088L117.129 37.1843C117.129 37.2023 117.129 37.2113 117.129 37.2294C117.129 41.5863 120.455 47.991 129.999 47.991C137.79 47.991 142.201 42.6778 142.201 37.4188C142.201 33.2874 140.104 30.1572 134.88 27.9291Z" fill="#F93958"/>
</g>
<defs>
<clipPath id="clip0_101_15">
<rect width="79.2647" height="35" fill="white" transform="translate(66 13)"/>
</clipPath>
</defs>
</svg>
