<svg width="212" height="60" viewBox="0 0 212 60" fill="none" xmlns="http://www.w3.org/2000/svg">
<path d="M41 9.92822V30.4392H45.7396V20.1837V9.92822H41Z" fill="#1D1D1B"/>
<path d="M59.9523 27.6433C58.9246 27.6433 57.4028 26.8365 56.5324 25.8309L53.3203 22.0514C51.4278 22.0514 49.0581 21.5872 47.6373 20.1837H51.4671L58.4305 9.92822H52.7026L45.7393 20.1837L52.8149 28.5771C53.6853 29.6049 55.2352 30.4448 56.2797 30.4448H59.9467V29.0468C59.9467 29.0468 59.9411 29.0468 59.9354 29.0468V27.6488H59.9467L59.9523 27.6433Z" fill="#1D1D1B"/>
<path d="M65.6406 30.4393H70.4813L71.7785 27.6434H81.3025L82.5997 30.4393H87.4403L76.5405 9L65.6406 30.4393ZM73.508 23.9191L76.5405 17.3934L79.5729 23.9191H73.5137H73.508Z" fill="#1D1D1B"/>
<path d="M121.55 30.4393H126.39L127.688 27.6434H137.212L138.509 30.4393H143.349L132.45 9L121.555 30.4393H121.55ZM129.417 23.9191L132.444 17.3934L135.476 23.9191H129.417Z" fill="#1D1D1B"/>
<path d="M166.665 25.7534L166.07 24.8582L165.059 23.3719C167.609 22.3109 169.4 19.8189 169.4 16.929C169.4 13.0721 166.211 9.93359 162.297 9.93359H151.874V30.4446H156.614V23.9189H159.736L162.796 28.4278C163.554 29.5439 165.087 30.4446 166.216 30.4446H169.861L169.872 27.6487C168.811 27.6487 167.373 26.8032 166.66 25.7534H166.665ZM161.819 19.7194H156.608V14.1275H161.819C163.386 14.1275 164.661 15.3818 164.661 16.9235C164.661 18.4651 163.386 19.7194 161.819 19.7194Z" fill="#1D1D1B"/>
<path d="M110.717 19.8963C112.138 19.0509 113.356 17.7856 113.356 15.4703V15.4096C113.356 14.0005 112.879 12.8622 111.93 11.9229C110.739 10.7515 108.864 10.105 106.483 10.105H96.0322V30.616H107.084C111.582 30.5165 114.519 28.6434 114.519 24.9909V24.9302C114.519 22.1729 113.115 20.8246 110.717 19.8908V19.8963ZM100.766 14.3044H105.708C107.583 14.3044 108.617 15.0393 108.617 16.3489V16.4042C108.617 17.8795 107.376 18.5039 105.416 18.5039H100.761V14.3044H100.766ZM109.779 24.3665C109.779 25.7922 108.639 26.4497 106.741 26.4497H100.766V22.2281H106.606C108.808 22.2281 109.785 23.0238 109.785 24.3113V24.3665H109.779Z" fill="#1D1D1B"/>
<path d="M167.704 51.0003H170.085L164.565 40.4077L159.051 51.0003H161.432L161.954 49.9946H167.182L167.704 51.0003ZM163.004 47.9833L164.565 44.9884L166.132 47.9833H163.004Z" fill="#957849"/>
<path d="M95.9873 40.4019L101.193 45.7009L106.399 40.4019V50.9944H104.124V45.7119L101.193 48.6847L98.2616 45.7119V50.9944H95.9873V40.4019Z" fill="#957849"/>
<path d="M115.012 40.7554H122.863V42.7612H117.287V44.8388H122.195V46.8446H117.287V48.994H122.936V50.9998H115.007V40.7554H115.012Z" fill="#957849"/>
<path d="M131.085 40.7554H135.145C138.419 40.7554 140.676 42.9656 140.676 45.85V45.8776C140.676 48.762 138.413 50.9998 135.145 50.9998H131.085V40.7554ZM135.145 48.9664C137.021 48.9664 138.284 47.7232 138.284 45.9108V45.8831C138.284 44.0707 137.021 42.7943 135.145 42.7943H133.376V48.9664H135.145Z" fill="#957849"/>
<path d="M148.937 40.7554H151.228V50.9998H148.937V40.7554Z" fill="#957849"/>
</svg>
